<?xml version="1.0" encoding="UTF-8" standalone="no"?>
<svg id="svg4152" xmlns:rdf="http://www.w3.org/1999/02/22-rdf-syntax-ns#" xmlns="http://www.w3.org/2000/svg" height="87.431mm" width="256.77mm" version="1.1" xmlns:cc="http://creativecommons.org/ns#" xmlns:dc="http://purl.org/dc/elements/1.1/" viewBox="0 0 256.76709 87.430504">
 <metadata id="metadata4158">
  <rdf:RDF>
   <cc:Work rdf:about="">
    <dc:format>image/svg+xml</dc:format>
    <dc:type rdf:resource="http://purl.org/dc/dcmitype/StillImage"/>
    <dc:title/>
   </cc:Work>
  </rdf:RDF>
 </metadata>
 <g id="layer3" transform="translate(-13.976 -39.363)">
  <path id="path4725" d="m671.02 170.8-96.092 30.945-35.832 9.7734-48.045-7.3301-15.473 8.957-61.891-15.471-104.24 6.5137-66.775 25.244-74.105 6.5156-24.43 24.43-35.832 4.0723-21.986 16.287-36.799 5.709v162.83h909.8v-195.24l-13.061-2.6133s-59.448-20.36-62.705-21.988c-3.2574-1.6287-71.662-26.059-71.662-26.059l-39.902-2.4434-70.848-8.1426-30.131-21.988z" fill-rule="evenodd" transform="scale(.28222)" fill="#ac9393"/>
 </g>
 <g id="layer4" transform="translate(-13.976 -39.363)">
  <path id="path4730" d="m676.02 179.79-82.92 16.123-59.887 17.273-43.762-4.6055-31.096 38.004-104.8 34.549-65.645-9.2129-157.78 109.41-35.701 14.971-44.914-5.1816v58.156h909.8v-124.95l-206.14-103.07-77.16-41.459z" fill-rule="evenodd" transform="scale(.28222)" fill="#916f6f"/>
 </g>
 <g id="layer2" fill-rule="evenodd" transform="translate(-13.976 -39.363)">
  <path id="path4723" fill="#ac9393" d="m160.42 95.547s17.007 9.8825 17.926 10.112c0.9193 0.22983 43.897 8.0439 43.897 8.0439l34.933-2.0684-31.946-17.697-16.318-9.4228-22.293-1.379z"/>
  <path id="path4715" fill="#c8b7b7" d="m178.44 39.363 26.977 24.702-9.7507 18.526-42.903 18.526-2.2752-17.226 11.701-26.652z"/>
  <path id="path4717" fill="#c8b7b7" d="m88.406 103.72 5.8504-14.626 30.552-25.352 3.5752 3.9003 9.7507-9.7507 1.3001 11.376-13.326 20.476-15.926 2.2752z"/>
  <path id="path4721" fill="#916f6f" d="m61.593 94.398h23.902l2.0684-5.0562-5.7456-25.281z"/>
  <path id="path4719" fill="#c8b7b7" d="m32.827 109.89c1.9501 0 32.177-37.703 32.177-37.703l2.2752 0.65004 6.8255-5.8504 6.5004-3.9003 2.6002 0.97507-27.952 39.978-7.8005-0.32502-2.6002 6.8255z"/>
 </g>
 <g id="layer5" fill-rule="evenodd" transform="translate(-13.976 -39.363)" fill="#ac9393">
  <path id="path4758" d="m176.16 75.766 5.5254-13.976 10.401-7.1505-8.1256 10.076z"/>
  <path id="path4760" d="m104.29 90.105 19.253-19.253-0.31438 4.1689-9.4275 10.125z"/>
  <path id="path4762" d="m129.86 72.317 8.4506-12.238-0.40241 4.1789-6.8409 10.447z"/>
 </g>
</svg>
